PathFileType  4	(X/Y/Z) C:\Users\antoi\Documents\MyRepositories\mobilecap\ResultsAnalysis
DataRate	CameraRate	NumFrames	NumMarkers	Units	OrigDataRate	OrigDataStartFrame	OrigNumFrames
100.0	100.0	4	55	mm	100.0	586	781
Frame#	Time	r_knee			r_shank_antsup			r_ankle			r_calc			r_5meta			r_toe			L_knee			L_shank_antsup			L_ankle			L_calc			L_5meta			L_toe			r_mknee			r_mankle			L_mknee			L_mankle			r_sh2			r_sh3			r_sh4			L_sh2			L_sh3			r_thigh1			r_thigh2			r_thigh3			r_thigh4			r_thigh5			L_thigh1			L_thigh2			L_thigh3			L_thigh4			r.ASIS			r.PSIS			L.ASIS			L.PSIS			C7			R_Shoulder			L_Shoulder			R_Sternum			L_Sternum			R_humerus			R_elbow_med			R_elbow_lat			R_forearm			R_wrist_radius			R_wrist_ulna			L_humerus			L_elbow_med			L_elbow_lat			L_forearm			L_wrist_radius			L_wrist_ulna			R_HJC			L_HJC			R_HJC_reg			L_HJC_reg			
		X1	Y1	Z1	X2	Y2	Z2	X3	Y3	Z3	X4	Y4	Z4	X5	Y5	Z5	X6	Y6	Z6	X7	Y7	Z7	X8	Y8	Z8	X9	Y9	Z9	X10	Y10	Z10	X11	Y11	Z11	X12	Y12	Z12	X13	Y13	Z13	X14	Y14	Z14	X15	Y15	Z15	X16	Y16	Z16	X17	Y17	Z17	X18	Y18	Z18	X19	Y19	Z19	X20	Y20	Z20	X21	Y21	Z21	X22	Y22	Z22	X23	Y23	Z23	X24	Y24	Z24	X25	Y25	Z25	X26	Y26	Z26	X27	Y27	Z27	X28	Y28	Z28	X29	Y29	Z29	X30	Y30	Z30	X31	Y31	Z31	X32	Y32	Z32	X33	Y33	Z33	X34	Y34	Z34	X35	Y35	Z35	X36	Y36	Z36	X37	Y37	Z37	X38	Y38	Z38	X39	Y39	Z39	X40	Y40	Z40	X41	Y41	Z41	X42	Y42	Z42	X43	Y43	Z43	X44	Y44	Z44	X45	Y45	Z45	X46	Y46	Z46	X47	Y47	Z47	X48	Y48	Z48	X49	Y49	Z49	X50	Y50	Z50	X51	Y51	Z51	X52	Y52	Z52	X53	Y53	Z53	X54	Y54	Z54	X55	Y55	Z55	

586	5.85000000	-210.97665	553.58589	-452.06832	-187.19836	429.58847	-458.47519	-294.11545	100.99608	-448.27008	-360.47166	66.57747	-490.56720	-159.47751	36.88106	-403.91992	-123.85607	58.78901	-478.33593	-250.25593	543.74858	-805.70294	-217.39877	440.77743	-792.85583	-300.72868	97.73250	-799.57408	-361.75518	66.41920	-751.34071	-156.19617	35.74758	-828.92474	-125.48548	58.89679	-757.62384	-218.04649	534.24114	-580.98673	-266.86972	111.69508	-543.02992	-238.36112	534.67686	-674.96909	-275.35660	113.25419	-706.07769	-194.34340	314.37837	-475.52455	-247.54121	424.71036	-409.13158	-245.83173	307.50810	-408.11684	-297.21146	443.11468	-834.40040	-278.36574	324.25893	-851.07841	-95.92486	783.39353	-476.81433	-107.72424	671.49558	-488.76031	-140.60925	647.05757	-434.68010	-179.58464	781.93490	-402.41322	-190.09263	664.24152	-422.03750	-138.91446	792.13861	-820.26105	-148.43141	656.39495	-809.73376	-248.38954	796.67331	-851.60043	-257.43505	658.49116	-832.86714	-118.93489	1056.00076	-487.43254	-323.14689	1088.27178	-575.77550	-115.53039	1047.94308	-755.23769	-324.29142	1085.68394	-674.03741	-311.30279	1575.87255	-638.35610	-230.72333	1518.17969	-444.67364	-214.91510	1534.95749	-811.28966	-163.33052	1524.22013	-608.66057	-162.32564	1518.87669	-652.41009	-201.29094	1349.23730	-374.07333	-260.30418	1123.18152	-407.40987	-236.21974	1148.47512	-333.15515	-120.59636	1017.85521	-323.18439	-72.57330	909.11366	-311.66242	-103.75115	888.24155	-293.29796	-189.66717	1358.95405	-891.33075	-269.01170	1147.86119	-862.89524	-225.89511	1162.72552	-927.54823	-120.70968	1034.93591	-896.73275	-78.17814	925.86032	-915.48978	-112.85752	910.83568	-942.17688	-200.81376	975.37710	-522.79755	-196.13605	958.64328	-735.48088	-190.74925	974.64963	-522.67997	-192.80826	969.99417	-699.45233	
587	5.86000000	-211.04102	553.53328	-452.15988	-187.22230	429.56178	-458.45445	-294.09361	101.02075	-448.25788	-360.49107	66.58765	-490.58044	-159.48470	36.87266	-403.91594	-123.83574	58.81339	-478.32771	-250.24366	543.76034	-805.71286	-217.38874	440.79843	-792.85367	-300.72838	97.75611	-799.57760	-361.78690	66.40823	-751.31205	-156.19365	35.76560	-828.92239	-125.49621	58.92114	-757.66558	-218.09526	534.27004	-581.04093	-266.86146	111.71987	-543.01947	-238.26100	534.80689	-674.95139	-275.33693	113.21403	-706.11171	-194.33960	314.38998	-475.50369	-247.55952	424.72952	-409.13886	-245.79529	307.48144	-408.09780	-297.20250	443.12626	-834.39949	-278.36153	324.29404	-851.07142	-95.97256	783.37916	-476.77839	-107.79027	671.50058	-488.79100	-140.65256	647.02834	-434.70348	-179.63070	781.95690	-402.40076	-190.12916	664.32602	-421.93325	-138.90729	792.13545	-820.26050	-148.41591	656.40354	-809.72828	-248.36745	796.69764	-851.60286	-257.43327	658.52077	-832.95464	-118.98867	1056.02030	-487.43248	-323.15766	1088.23553	-575.82749	-115.50921	1047.96590	-755.23486	-324.29717	1085.64844	-674.02876	-311.34779	1575.87267	-638.36187	-230.77552	1518.17907	-444.71033	-214.92852	1534.95907	-811.29991	-163.37904	1524.21986	-608.67034	-162.35713	1518.86780	-652.42865	-201.33153	1349.18357	-374.12678	-260.31440	1123.17458	-407.42943	-236.27705	1148.34237	-333.29287	-120.61330	1017.77335	-323.35002	-72.57057	909.07997	-311.70215	-103.73279	888.14355	-293.53868	-189.66807	1358.97762	-891.34474	-269.01129	1147.85385	-862.87269	-225.90237	1162.74560	-927.56737	-120.74504	1034.94513	-896.73423	-78.19998	925.87592	-915.49898	-112.87615	910.86993	-942.11722	-200.81905	975.37312	-522.80587	-196.09890	958.64443	-735.48867	-190.74776	974.65478	-522.68149	-192.79899	969.99775	-699.45263	
588	5.87000000	-211.07665	553.55393	-452.20597	-187.23795	429.54257	-458.44950	-294.09960	100.98992	-448.24798	-360.50671	66.58087	-490.59610	-159.51416	36.84596	-403.88650	-123.82395	58.81476	-478.31829	-250.22700	543.75504	-805.72732	-217.37808	440.79846	-792.85303	-300.74358	97.76434	-799.51034	-361.78873	66.40499	-751.31005	-156.18816	35.76964	-828.92189	-125.47596	58.93294	-757.65052	-218.10092	534.28247	-581.05687	-266.86163	111.72734	-543.01797	-238.18882	534.90131	-674.93815	-275.26460	113.18497	-706.02237	-194.33069	314.40553	-475.50140	-247.50156	424.78404	-409.12893	-245.80845	307.45642	-408.13652	-297.18860	443.13755	-834.40727	-278.36307	324.31868	-851.17459	-96.03831	783.37604	-476.77801	-107.82256	671.48333	-488.77358	-140.70078	646.99535	-434.71678	-179.67225	781.95813	-402.42172	-190.15631	664.35008	-421.87765	-138.88011	792.13749	-820.25098	-148.39834	656.40492	-809.72323	-248.35186	796.69434	-851.60249	-257.41182	658.53010	-833.01873	-119.06629	1056.07389	-487.46084	-323.19487	1088.20753	-575.86778	-115.49427	1047.95952	-755.24340	-324.30032	1085.65874	-674.07375	-311.37940	1575.88756	-638.39182	-230.78776	1518.16964	-444.74617	-214.93354	1534.97185	-811.31971	-163.41952	1524.20978	-608.68408	-162.38784	1518.86405	-652.44918	-201.38213	1349.14461	-374.17137	-260.23219	1123.07252	-407.52889	-236.33892	1148.26749	-333.38617	-120.67651	1017.66855	-323.50425	-72.62307	908.97522	-311.76665	-103.73899	888.00398	-293.84256	-189.65824	1359.01289	-891.39300	-269.03385	1147.85601	-862.88987	-225.91802	1162.74444	-927.57365	-120.78296	1034.94174	-896.73819	-78.22669	925.87646	-915.52194	-112.91815	910.90066	-942.05378	-200.85294	975.39664	-522.81969	-196.08440	958.64042	-735.49924	-190.76451	974.60273	-522.76081	-192.75425	970.01506	-699.52341	
589	5.88000000	-211.04462	553.62696	-452.16216	-187.24086	429.54868	-458.45562	-294.11743	100.93520	-448.23976	-360.49636	66.54994	-490.58940	-159.52023	36.83597	-403.85564	-123.82164	58.79035	-478.31258	-250.20693	543.74288	-805.74365	-217.37172	440.78135	-792.86851	-300.76631	97.74356	-799.39516	-361.77436	66.40423	-751.32498	-156.18547	35.75501	-828.90729	-125.44684	58.92017	-757.60493	-218.10820	534.25688	-581.10982	-266.86686	111.71873	-543.02598	-238.19157	534.89344	-674.94625	-275.22350	113.22265	-705.91510	-194.35024	314.38570	-475.50270	-247.46447	424.84538	-409.12765	-245.89822	307.42552	-408.16893	-297.16533	443.12876	-834.43243	-278.37315	324.30440	-851.25394	-96.09104	783.38727	-476.80462	-107.83598	671.44493	-488.70324	-140.74021	646.96955	-434.72938	-179.72638	781.94582	-402.43648	-190.21391	664.29706	-421.93149	-138.84588	792.14255	-820.24572	-148.38565	656.40069	-809.72252	-248.33936	796.65351	-851.57315	-257.37916	658.50574	-833.03264	-119.14403	1056.11732	-487.51187	-323.24908	1088.21151	-575.92502	-115.49842	1047.94982	-755.24694	-324.29344	1085.68611	-674.12840	-311.39520	1575.89086	-638.42081	-230.79659	1518.13787	-444.74075	-214.94298	1534.98496	-811.34572	-163.44253	1524.19642	-608.68727	-162.41375	1518.87668	-652.44371	-201.44400	1349.09668	-374.22379	-260.13855	1122.86492	-407.67809	-236.38120	1148.24361	-333.43462	-120.70547	1017.56973	-323.62870	-72.68671	908.84939	-311.88669	-103.76901	887.90461	-294.00934	-189.67494	1359.01307	-891.43079	-269.05511	1147.86350	-862.90887	-225.94852	1162.73037	-927.56963	-120.82806	1034.94636	-896.76258	-78.26305	925.85431	-915.55030	-112.98448	910.88011	-942.11792	-200.90766	975.42615	-522.84449	-196.09343	958.64147	-735.52077	-190.83435	974.58378	-522.86702	-192.71386	970.03885	-699.60234	
